<?xml version="1.0" encoding="utf-8"?>
<!-- Generator: Adobe Illustrator 25.3.1, SVG Export Plug-In . SVG Version: 6.00 Build 0)  -->
<svg version="1.1" id="Layer_1" xmlns="http://www.w3.org/2000/svg" xmlns:xlink="http://www.w3.org/1999/xlink" x="0px" y="0px"
	 viewBox="0 0 1142.7 1812.6" style="enable-background:new 0 0 1142.7 1812.6;" xml:space="preserve">
<style type="text/css">
	.st0{fill:#DDC3B1;}
	.st1{fill:#8A2BE2;}
	.st2{fill:#FFFFFF;}
	.st3{font-family:'glacial_indifferencebold';}
	.st4{font-size:39.9132px;}
	.st5{fill:#EFD3BF;stroke:#EFD3BF;}
	.st6{fill:#282828;}
	.st7{font-size:29.1805px;}
	.st8{display:none;}
	.st9{display:inline;fill:#3A3836;}
	.st10{fill:#EFD3BF;stroke:#EFD3BF;stroke-miterlimit:10;}
	.st11{font-size:53.6656px;}
	.st12{fill:#301302;}
</style>
<g id="face">
	<polygon class="st0" points="482.5,624.6 435.8,750 713.6,750 652.1,614.7 	"/>
	<path class="st1" d="M394.1,275.9l13,115.8c2.7,12.4,8.4,52.5,10.8,65.7c3.8,20.8,6.8,40.9,9.1,60c9.9,26.9,19.8,53.8,29.7,80.6
		l51.5,64.9l112.6,4.3l85.2-107l27.6-103.4l28.5-114.5l-29.8-121.8l-98.7-68.9l-111.7,5L423.9,206L394.1,275.9z"/>
	<text id="about" transform="matrix(1 0 0 1 487.38 442.9731)" class="st2 st3 st4">about me</text>
	<g id="facemovable" class="notanimated">
		<polygon class="st5" points="507.5,662.9 456.1,598 426.4,517.4 406.5,391.6 393.5,275.9 423.2,206 521.3,156.7 577.5,154.4 
			577.5,665.6 		"/>
	</g>
	<g id="facemovable2" class="notanimated">
		<polygon class="st5" points="577.5,665.6 577.5,154.4 633,151.7 731.6,220.6 761.4,342.4 705.3,560.3 620.1,667.3 		"/>
	</g>
</g>
<g id="torso">
	<rect x="259.1" y="735.1" class="st6" width="638" height="56.5"/>
	<rect x="244.8" y="1218.7" class="st2" width="645.4" height="56.6"/>
	<rect x="236.7" y="1168.2" class="st6" width="669.9" height="56.6"/>
	<rect x="252.8" y="1273.4" class="st6" width="634.1" height="56.6"/>
	<rect x="264.8" y="1326.2" class="st2" width="611.5" height="56.6"/>
	<rect x="276.1" y="1433.6" class="st2" width="581.1" height="56.6"/>
	<rect x="281" y="1541.8" class="st2" width="571.3" height="56.6"/>
	<rect x="288.5" y="1648.6" class="st2" width="566.4" height="56.6"/>
	<rect x="271.8" y="1382.7" class="st6" width="592.1" height="56.6"/>
	<rect x="286.6" y="1489.2" class="st6" width="580" height="56.6"/>
	<rect x="294.6" y="1593.9" class="st6" width="551.7" height="56.6"/>
	<path class="st2" d="M107.6,931.6"/>
	<rect x="271.8" y="1703.2" class="st6" width="588.7" height="56.6"/>
	<rect x="252.8" y="1755.3" class="st2" width="622.7" height="56.6"/>
</g>
<g id="phone">
	<polygon class="st5" points="648.4,1493.6 747.9,1466.5 616.2,1455.1 	"/>
	<polygon class="st5" points="632.8,1494.9 551.8,1475.4 615.2,1458.1 	"/>
	<path class="st1" d="M560.3,1639.6l125.5,36.8c13.9,4,28.4-3.5,33.1-17.2l85.9-251.5c4.8-14.1-2.7-29.5-16.9-34.3
		c-0.3-0.1-0.5-0.2-0.8-0.3L637,1327.4c-14.3-4.3-29.3,3.7-33.7,18c-0.2,0.5-0.3,1.1-0.4,1.6l-61.2,260.5
		C538.4,1621.5,546.5,1635.5,560.3,1639.6z"/>
	<text id="contact" transform="matrix(0.9556 0.2946 -0.2946 0.9556 652.1999 1369.2705)" class="st2 st3 st7">contact</text>
	<g id="movablephone" class="st8" class="notanimated">
		<path class="st9" d="M560.3,1639.6l125.5,36.8c13.9,4,28.4-3.5,33.1-17.2l85.9-251.5c4.8-14.1-2.7-29.5-16.9-34.3
			c-0.3-0.1-0.5-0.2-0.8-0.3L637,1327.4c-14.3-4.3-29.3,3.7-33.7,18c-0.2,0.5-0.3,1.1-0.4,1.6l-61.2,260.5
			C538.4,1621.5,546.5,1635.5,560.3,1639.6z"/>
	</g>
</g>
<g id="arm_2">
	<path class="st10" d="M1850.3,867"/>
	<polygon class="st10" points="57.3,1140.8 236.7,1140.8 222.9,1368.3 	"/>
	<polygon class="st10" points="57.3,1140.8 222.9,1368.3 15.2,1401.6 	"/>
	<polygon class="st10" points="222.9,1368.3 15.2,1401.6 178.1,1563.9 	"/>
	<polygon class="st10" points="15.2,1401.6 178.1,1563.9 1.3,1594.7 	"/>
	<polygon class="st10" points="178.1,1563.9 1.3,1594.7 156.4,1697.6 	"/>
	<polygon class="st10" points="1.3,1594.7 156.4,1697.6 10.2,1753.7 	"/>
	<polygon class="st10" points="147,1778.1 296.5,1710.3 165.6,1598.3 	"/>
	<polygon class="st10" points="296.5,1710.3 180.4,1611 364.4,1544.8 	"/>
	<polygon class="st10" points="296.5,1710.3 458.9,1630.6 364.4,1544.8 	"/>
	<polygon class="st10" points="364.4,1544.8 479.5,1506.8 458.9,1630.6 	"/>
	<polygon class="st10" points="458.9,1630.6 616,1667.6 602.4,1529.1 	"/>
	<polygon class="st10" points="616,1667.6 729.5,1636.7 602.4,1529.1 	"/>
	<polygon class="st10" points="729.5,1636.7 805.4,1558.6 741,1518.4 	"/>
	<polygon class="st10" points="741,1518.4 602.4,1529.1 563.4,1480.3 	"/>
	<polygon class="st10" points="458.9,1630.6 602.4,1529.1 479.5,1506.8 	"/>
	<polygon class="st10" points="602.4,1529.1 563.4,1480.3 479.5,1506.8 	"/>
	<polygon class="st10" points="10.2,1753.7 156.4,1697.6 147,1778.1 	"/>
	<polygon class="st10" points="1085.4,1140.2 906,1140.2 928.1,1388.8 	"/>
	<polygon class="st10" points="1085.4,1140.2 928.1,1388.8 1123.4,1408.9 	"/>
	<polygon class="st10" points="928.1,1388.8 1123.4,1408.9 968,1569.5 	"/>
	<polygon class="st10" points="1123.4,1408.9 968,1569.5 1141.4,1594.1 	"/>
	<polygon class="st10" points="968,1569.5 1141.4,1594.1 982.9,1704.5 	"/>
	<polygon class="st10" points="1141.4,1594.1 982.9,1704.5 1138.9,1745.8 	"/>
	<polygon class="st10" points="1138.9,1745.8 982.9,1704.5 982.9,1811.9 	"/>
	<polygon class="st10" points="602.4,1529.1 729.5,1636.7 741,1518.4 	"/>
	<polygon class="st10" points="1138.9,1745.8 982.9,1811.9 1138.9,1811.9 	"/>
</g>
<g id="movables">
	<polygon class="st1" points="259.1,786 90.1,786 90.1,842.5 64.9,842.4 64.9,898.9 51.9,898.7 51.9,955.3 41.4,954.3 41.4,1010.8 
		35.8,1007.3 35.8,1063.9 29.6,1062 29.6,1118.6 41.4,1118.6 41.4,1169.1 1102.9,1169.1 1102.9,1118.6 1107.4,1118.6 1107.4,1007.3 
		1094,1010.8 1094,954.3 1085.4,955.3 1085.4,898.7 1077.8,898.9 1077.8,842.4 1059.2,842.5 1059.2,786 	"/>
	<text id="portfolio" transform="matrix(1 0 0 1 464.188 988.5808)" class="st2 st3 st11">portfolio</text>
	<g id="torso-movable" class="notanimated">
		<rect x="29.8" y="1062" class="st6" width="1077.8" height="56.6"/>
		<rect x="41.4" y="954.3" class="st6" width="1052.5" height="56.5"/>
		<rect x="64.9" y="842.4" class="st6" width="1013" height="56.5"/>
	</g>
	<g id="torso-movable-w" class="notanimated">
		<rect x="41.4" y="1112.6" class="st2" width="1061.4" height="56.6"/>
		<rect x="35.8" y="1007.3" class="st2" width="1071.6" height="56.6"/>
		<rect x="51.9" y="898.7" class="st2" width="1033.5" height="56.5"/>
		<rect x="90.1" y="786" class="st2" width="969.1" height="56.5"/>
	</g>
</g>
<g id="hair">
	<circle class="st12" cx="339.7" cy="221.6" r="40.1"/>
	<circle class="st12" cx="419.8" cy="201.6" r="40.1"/>
	<circle class="st12" cx="768.4" cy="161.6" r="40.1"/>
	<circle class="st12" cx="426.6" cy="57.1" r="40.1"/>
	
		<ellipse transform="matrix(0.331 -0.9436 0.9436 0.331 254.8663 542.774)" class="st12" cx="510.2" cy="91.6" rx="40.1" ry="40.1"/>
	<circle class="st12" cx="726" cy="101.4" r="40.1"/>
	<circle class="st12" cx="658.9" cy="81.4" r="20"/>
	<circle class="st12" cx="678.9" cy="161.5" r="50.9"/>
	<circle class="st12" cx="550.9" cy="134.2" r="40.1"/>
	<circle class="st12" cx="494" cy="176.9" r="42.7"/>
	<circle class="st12" cx="575.2" cy="70.5" r="32.3"/>
	<circle class="st12" cx="372.9" cy="121.4" r="50.9"/>
	<circle class="st12" cx="812.8" cy="233.1" r="20"/>
	<circle class="st12" cx="726" cy="201.6" r="20"/>
	<circle class="st12" cx="418.9" cy="151.7" r="20"/>
	<circle class="st12" cx="449" cy="151.7" r="20"/>
	<circle class="st12" cx="616.7" cy="101.4" r="20"/>
	<circle class="st12" cx="628.7" cy="46.5" r="28.2"/>
	<circle class="st12" cx="755.8" cy="233.1" r="40.1"/>
	<circle class="st12" cx="473.9" cy="121.4" r="20"/>
	<circle class="st12" cx="390.1" cy="358.9" r="20"/>
	<circle class="st12" cx="359.7" cy="290.9" r="20"/>
	<circle class="st12" cx="399.8" cy="301.7" r="20"/>
	<circle class="st12" cx="802.1" cy="270.8" r="20"/>
	<circle class="st12" cx="726" cy="201.6" r="20"/>
	<circle class="st12" cx="762.1" cy="281.7" r="20"/>
	<circle class="st12" cx="755.2" cy="342.4" r="20"/>
	<circle class="st12" cx="467.4" cy="87.6" r="20"/>
	<circle class="st12" cx="759" cy="315.2" r="20"/>
	<circle class="st12" cx="788.1" cy="296.9" r="32.3"/>
	<circle class="st12" cx="390.1" cy="331.5" r="20"/>
	<circle class="st12" cx="377.1" cy="186" r="20"/>
	<circle class="st12" cx="366.5" cy="261.7" r="20"/>
	<circle class="st12" cx="494" cy="143.7" r="20"/>
	<circle class="st12" cx="606.5" cy="134.2" r="32.3"/>
	<circle class="st12" cx="435.1" cy="113.7" r="32.3"/>
	<circle class="st12" cx="653.1" cy="101.4" r="32.3"/>
	<circle class="st12" cx="581.8" cy="111" r="32.3"/>
	<circle class="st12" cx="800.8" cy="194.2" r="32.3"/>
	<circle class="st12" cx="386.6" cy="261.7" r="32.3"/>
	<circle class="st12" cx="685.5" cy="78.7" r="8.8"/>
	<circle class="st12" cx="782.1" cy="102.8" r="13.5"/>
	<circle class="st12" cx="354.2" cy="161.5" r="32.3"/>
	<circle class="st12" cx="390.1" cy="227" r="32.3"/>
	<circle class="st12" cx="494" cy="40.5" r="32.3"/>
	<circle class="st12" cx="671.4" cy="51.6" r="10.5"/>
	<circle class="st12" cx="429" cy="250.8" r="10.5"/>
	<circle class="st12" cx="333.1" cy="272.4" r="10.5"/>
	<circle class="st12" cx="539.9" cy="46.5" r="10.5"/>
	<circle class="st12" cx="788.1" cy="342.4" r="10.5"/>
	<circle class="st12" cx="359.7" cy="318.5" r="10.5"/>
	<circle class="st12" cx="592.3" cy="30.5" r="10.5"/>
	<circle class="st12" cx="314.8" cy="176.9" r="10.5"/>
	<circle class="st12" cx="759" cy="369.4" r="10.5"/>
	<circle class="st12" cx="616.7" cy="70.8" r="10.5"/>
	<circle class="st12" cx="558.3" cy="20" r="20"/>
</g>
</svg>
