<?xml version="1.0" encoding="UTF-8" standalone="no"?>
<!-- Created with Inkscape (http://www.inkscape.org/) -->

<svg
   width="362.17575mm"
   height="174.96536mm"
   viewBox="0 0 362.17576 174.96536"
   version="1.1"
   id="svg1"
   xml:space="preserve"
   inkscape:version="1.4.2 (f4327f4, 2025-05-13)"
   sodipodi:docname="website plane.svg"
   xmlns:inkscape="http://www.inkscape.org/namespaces/inkscape"
   xmlns:sodipodi="http://sodipodi.sourceforge.net/DTD/sodipodi-0.dtd"
   xmlns="http://www.w3.org/2000/svg"
   xmlns:svg="http://www.w3.org/2000/svg"><sodipodi:namedview
     id="namedview1"
     pagecolor="#050e39"
     bordercolor="#111111"
     borderopacity="1"
     inkscape:showpageshadow="0"
     inkscape:pageopacity="0"
     inkscape:pagecheckerboard="1"
     inkscape:deskcolor="#d1d1d1"
     inkscape:document-units="mm"
     inkscape:zoom="0.71980918"
     inkscape:cx="789.09803"
     inkscape:cy="155.59679"
     inkscape:window-width="1920"
     inkscape:window-height="1010"
     inkscape:window-x="-6"
     inkscape:window-y="-6"
     inkscape:window-maximized="1"
     inkscape:current-layer="layer3"><inkscape:page
       x="0"
       y="0"
       width="362.17575"
       height="174.96535"
       id="page5"
       margin="0"
       bleed="0" /></sodipodi:namedview><defs
     id="defs1" /><g
     inkscape:groupmode="layer"
     id="layer2"
     inkscape:label="plane"
     transform="translate(72.779703,21.319307)"><g
       id="g5"
       inkscape:label="plane_g"><path
         style="fill:#b3b3b3;fill-opacity:1;stroke-width:0.264583"
         d="m 111.37746,62.145117 5.8407,-24.984618 6.89266,1.140157 c 1.73671,0.425258 2.33486,0.973796 2.7151,2.482391 l 5.34447,23.213769 z"
         id="path1"
         sodipodi:nodetypes="cccccc" /><path
         style="fill:#b3b3b3;fill-opacity:1;stroke-width:0.264583"
         d="m 34.593225,29.342629 -13.284661,9.882189 18.400776,3.411085 1.254161,-9.949035 c 0.194307,-1.765918 0.418387,-3.280207 -2.649677,-3.421834 z"
         id="path4"
         sodipodi:nodetypes="cccccc" /><path
         style="fill:#e6e6e6;stroke-width:0.264583"
         d="M 192.99761,89.626828 85.901998,83.161613 C 61.840075,78.437843 54.203875,72.80864 45.923086,63.287166 L 28.272493,43.60979 13.278456,39.001911 28.278972,37.390832 39.765145,37.787655 c 6.898006,0.323958 9.177086,2.494593 12.794585,6.916202 l 8.386669,9.084439 c 4.681336,5.013661 5.162249,4.075146 12.788114,5.149203 L 180.5009,67.498221 c 12.55132,0.86524 17.35552,8.819428 20.40066,18.167025 1.72588,5.297904 -7.90395,3.961582 -7.90395,3.961582 z"
         id="path3"
         sodipodi:nodetypes="cccccccccccsc" /><path
         style="fill:#cccccc;stroke-width:0.264583"
         d="m 5.0549161,49.176546 16.1137999,-9.811273 16.690866,0.313115 -23.794506,9.361603 c -2.015888,1.036032 -4.1121717,1.88071 -6.8030467,1.310232 z"
         id="path5"
         sodipodi:nodetypes="cccccc" /><path
         style="fill:#cccccc;stroke-width:0.264583"
         d="m 92.292974,82.274806 -16.975943,10.494806 -46.595009,17.231478 6.940224,1.0718 c 2.538598,-0.0633 4.467173,-0.61805 7.176487,-1.52963 L 127.93267,83.447101 c -0.10417,-2.348748 -6.40587,-2.668019 -10.57675,-3.492555 z"
         id="path2"
         sodipodi:nodetypes="cccccccc" /></g></g><g
     inkscape:groupmode="layer"
     id="layer3"
     inkscape:label="clouds"><g
       id="g8"
       inkscape:label="cloud1"
       transform="translate(-46.681932,21.686882)"><path
         style="fill:#d6d6d6;fill-opacity:1;stroke-width:0.264583"
         d="m 251.05322,27.01671 h 17.64356 l 6.43255,-5.88119 -5.5136,-4.778465 c -4.53342,-3.400065 -4.65594,-0.07467 -8.638,0 -6.27491,1.609721 -10.12181,4.713595 -13.23267,8.270421 -0.61076,1.731035 1.27423,2.100757 3.30816,2.389234 z"
         id="path6"
         sodipodi:nodetypes="ccccccc" /><path
         style="fill:#e0e0e0;fill-opacity:1;stroke-width:0.264583"
         d="m 304.62717,11.302909 c 5.37659,-3.3833368 8.1299,-3.7938512 13.32458,-1.3784039 2.3546,1.3970539 4.46569,3.1837289 5.60551,6.5244439 5.60712,1.438461 9.53531,5.367291 11.85426,10.383973 l -38.31963,-0.0919 z"
         id="path8"
         sodipodi:nodetypes="cccccc" /><path
         style="fill:#e6e6e6;stroke-width:0.264583"
         d="m 265.66431,28.670792 h 56.14697 c -1.01613,-2.264056 -2.26146,-4.413519 -3.76764,-6.432548 -1.38375,-4.973988 -18.084,-13.0587649 -19.94091,-11.57859 -0.72571,-3.5186689 -8.55583,-5.6704873 -11.57858,-5.3298272 -3.74667,0.3425138 -20.02108,3.0001373 -20.85984,23.3409652 z"
         id="path7"
         sodipodi:nodetypes="cccccc" /></g><g
       id="g10"
       inkscape:label="cloud2"
       transform="translate(-111.74258,83.806936)"><path
         style="fill:#ececec;fill-opacity:1;stroke-width:0.264583"
         d="m 233.14309,29.370311 h -36.51795 c -3.29225,-3.292247 -11.07104,-1.537133 -9.87675,-9.876742 0.75056,-7.37839 5.23806,-11.3240863 13.6901,-13.8738795 6.28247,-1.6833816 11.41553,5.8354255 13.72815,10.6118905 10.21395,-0.766704 10.29613,7.318741 11.30898,10.105123 4.64079,-1.018259 5.47026,1.386144 7.66747,3.033608 z"
         id="path10"
         sodipodi:nodetypes="ccccccc" /><path
         style="fill:#e0e0e0;fill-opacity:1;stroke-width:0.264583"
         d="m 175.73199,30.939032 h 41.8462 c 7.68784,-3.922585 -0.51162,-12.850556 -4.01944,-12.890757 -4.56578,-0.07281 -8.4636,-0.336264 -13.91465,5.613158 -5.97629,-5.281987 -7.73266,-0.34147 -9.9844,0.661727 -5.19235,-1.85743 -10.81727,-0.366745 -15.22728,3.366944 -2.10968,2.269647 -0.11228,2.622659 1.29957,3.248928 z"
         id="path9"
         sodipodi:nodetypes="ccccccc" /></g></g></svg>
